ply
format ascii 1.0
comment Created by Blender 2.82 (sub 7) - www.blender.org, source file: 'tree.blend'
element vertex 81
property float x
property float y
property float z
property uchar red
property uchar green
property uchar blue
property uchar alpha
element face 146
property list uchar uint vertex_indices
end_header
-0.052797 5.530162 0.618327 99 25 0 255
-0.588283 1.888668 0.309163 99 25 0 255
-0.052797 1.888668 0.618327 99 25 0 255
-0.588283 5.530162 0.309163 99 25 0 255
-0.588283 1.888668 -0.309163 99 25 0 255
-0.588283 5.530162 -0.309163 99 25 0 255
-0.052796 1.888668 -0.618326 99 25 0 255
-0.052796 5.530162 -0.618326 99 25 0 255
0.482690 1.888668 -0.309163 99 25 0 255
0.482690 5.530162 -0.309163 99 25 0 255
0.482690 1.888668 0.309163 99 25 0 255
0.482690 5.530162 0.309163 99 25 0 255
-0.052796 -0.000970 -1.736253 99 25 0 255
1.450843 -0.000970 -0.868127 99 25 0 255
1.450843 -0.000970 0.868127 99 25 0 255
0.836633 0.574555 0.513512 99 25 0 255
-0.052797 0.574555 1.027025 99 25 0 255
0.836633 0.574555 -0.513512 99 25 0 255
-0.052796 0.574555 -1.027025 99 25 0 255
-0.942226 0.574555 -0.513512 99 25 0 255
-0.942226 0.574555 0.513512 99 25 0 255
-0.052797 -0.000970 1.736254 99 25 0 255
-1.556436 -0.000970 0.868127 99 25 0 255
-1.556436 -0.000970 -0.868127 99 25 0 255
0.000000 6.289898 0.926442 0 114 5 255
0.000000 8.142782 0.000000 0 114 5 255
-0.802322 6.289898 0.463221 0 114 5 255
-0.802322 6.289898 -0.463221 0 114 5 255
0.000000 6.289898 -0.926442 0 114 5 255
0.802322 6.289898 -0.463221 0 114 5 255
0.802322 6.289898 0.463221 0 114 5 255
0.802322 6.289898 -0.463221 0 114 5 255
0.000000 6.289898 -0.926442 0 114 5 255
0.000000 6.289898 0.926442 0 114 5 255
1.560611 5.440454 0.901019 0 114 5 255
0.802322 6.289898 0.463221 0 114 5 255
-0.802322 6.289898 0.463221 0 114 5 255
-0.802322 6.289898 -0.463221 0 114 5 255
0.000000 5.440454 -1.802039 0 114 5 255
1.560611 5.440454 -0.901019 0 114 5 255
-1.560611 5.440454 0.901019 0 114 5 255
-1.560611 5.440454 -0.901020 0 114 5 255
-0.000000 5.440454 1.802039 0 114 5 255
0.505488 4.955667 1.029974 0 114 5 255
0.029070 7.444648 0.057888 0 114 5 255
-0.705240 4.988539 0.949667 0 114 5 255
-1.239797 5.053314 -0.138195 0 114 5 255
-0.563627 5.085216 -1.145750 0 114 5 255
0.647101 5.052344 -1.065443 0 114 5 255
1.181658 4.987569 0.022419 0 114 5 255
0.647101 5.052344 -1.065443 0 114 5 255
-0.563627 5.085216 -1.145750 0 114 5 255
0.505488 4.955667 1.029974 0 114 5 255
2.299284 3.845137 0.045242 0 114 5 255
1.181658 4.987569 0.022419 0 114 5 255
-0.705240 4.988539 0.949667 0 114 5 255
-1.239797 5.053314 -0.138195 0 114 5 255
-1.095501 4.035071 -2.226985 0 114 5 255
1.259508 3.971131 -2.070778 0 114 5 255
-1.370955 3.847024 1.848849 0 114 5 255
-2.410732 3.973018 -0.267171 0 114 5 255
0.984053 3.783084 2.005056 0 114 5 255
0.873794 3.515271 1.091054 0 114 5 255
-0.019462 6.318104 0.101437 0 114 5 255
-0.487682 3.520447 1.361202 0 114 5 255
-1.402237 3.547832 0.317428 0 114 5 255
-0.955314 3.570042 -0.996494 0 114 5 255
0.406162 3.564866 -1.266642 0 114 5 255
1.320716 3.537480 -0.222868 0 114 5 255
0.406162 3.564866 -1.266642 0 114 5 255
-0.955314 3.570042 -0.996494 0 114 5 255
0.873794 3.515271 1.091054 0 114 5 255
2.597708 2.260200 -0.503018 0 114 5 255
1.320716 3.537480 -0.222868 0 114 5 255
-0.487682 3.520447 1.361202 0 114 5 255
-1.402237 3.547832 0.317428 0 114 5 255
-1.829440 2.323535 -2.007813 0 114 5 255
0.818792 2.313468 -2.533282 0 114 5 255
-0.919840 2.227069 2.578186 0 114 5 255
-2.698756 2.280336 0.547921 0 114 5 255
1.728392 2.217001 2.052716 0 114 5 255
3 0 1 2
3 3 4 1
3 5 6 4
3 7 8 6
3 7 5 0
3 9 10 8
3 11 2 10
3 12 13 14
3 15 2 16
3 8 15 17
3 6 17 18
3 4 18 19
3 1 19 20
3 2 20 16
3 21 20 22
3 20 23 22
3 19 12 23
3 18 13 12
3 17 14 13
3 14 16 21
3 0 3 1
3 3 5 4
3 5 7 6
3 7 9 8
3 5 3 0
3 0 11 9
3 9 7 0
3 9 11 10
3 11 0 2
3 14 21 22
3 22 23 14
3 23 12 14
3 15 10 2
3 8 10 15
3 6 8 17
3 4 6 18
3 1 4 19
3 2 1 20
3 21 16 20
3 20 19 23
3 19 18 12
3 18 17 13
3 17 15 14
3 14 15 16
3 24 25 26
3 26 25 27
3 27 25 28
3 28 25 29
3 29 25 30
3 30 25 24
3 28 31 32
3 33 34 35
3 30 33 35
3 24 36 33
3 27 32 37
3 26 37 36
3 29 35 31
3 38 39 34
3 31 38 32
3 37 40 36
3 35 39 31
3 32 41 37
3 36 42 33
3 28 29 31
3 33 42 34
3 30 24 33
3 24 26 36
3 27 28 32
3 26 27 37
3 29 30 35
3 34 42 40
3 40 41 34
3 41 38 34
3 31 39 38
3 37 41 40
3 35 34 39
3 32 38 41
3 36 40 42
3 43 44 45
3 45 44 46
3 46 44 47
3 47 44 48
3 48 44 49
3 49 44 43
3 47 50 51
3 52 53 54
3 49 52 54
3 43 55 52
3 46 51 56
3 45 56 55
3 48 54 50
3 57 58 53
3 50 57 51
3 56 59 55
3 54 58 50
3 51 60 56
3 55 61 52
3 47 48 50
3 52 61 53
3 49 43 52
3 43 45 55
3 46 47 51
3 45 46 56
3 48 49 54
3 53 61 59
3 59 60 53
3 60 57 53
3 50 58 57
3 56 60 59
3 54 53 58
3 51 57 60
3 55 59 61
3 62 63 64
3 64 63 65
3 65 63 66
3 66 63 67
3 67 63 68
3 68 63 62
3 66 69 70
3 71 72 73
3 68 71 73
3 62 74 71
3 65 70 75
3 64 75 74
3 67 73 69
3 76 77 72
3 69 76 70
3 75 78 74
3 73 77 69
3 70 79 75
3 74 80 71
3 66 67 69
3 71 80 72
3 68 62 71
3 62 64 74
3 65 66 70
3 64 65 75
3 67 68 73
3 72 80 78
3 78 79 72
3 79 76 72
3 69 77 76
3 75 79 78
3 73 72 77
3 70 76 79
3 74 78 80
